<mxfile host="app.diagrams.net" agent="Mozilla/5.0 (Macintosh; Intel Mac OS X 10_15_7) AppleWebKit/537.36 (KHTML, like Gecko) Chrome/138.0.0.0 Safari/537.36" version="27.1.6">
  <diagram name="第 1 页" id="07oNwzkXvTwjMVtEo4L7">
    <mxGraphModel dx="1426" dy="668" grid="1" gridSize="10" guides="1" tooltips="1" connect="1" arrows="1" fold="1" page="1" pageScale="1" pageWidth="827" pageHeight="1169" math="0" shadow="0">
      <root>
        <mxCell id="0" />
        <mxCell id="1" parent="0" />
        <mxCell id="UF7cHTjBoaLbCPgE46Oi-5" value="" style="edgeStyle=orthogonalEdgeStyle;rounded=0;orthogonalLoop=1;jettySize=auto;html=1;entryX=0.382;entryY=0.029;entryDx=0;entryDy=0;entryPerimeter=0;" parent="1" source="UF7cHTjBoaLbCPgE46Oi-1" target="UF7cHTjBoaLbCPgE46Oi-2" edge="1">
          <mxGeometry relative="1" as="geometry">
            <mxPoint x="330" y="230" as="targetPoint" />
          </mxGeometry>
        </mxCell>
        <mxCell id="UF7cHTjBoaLbCPgE46Oi-8" value="" style="edgeStyle=orthogonalEdgeStyle;rounded=0;orthogonalLoop=1;jettySize=auto;html=1;" parent="1" source="UF7cHTjBoaLbCPgE46Oi-1" edge="1">
          <mxGeometry relative="1" as="geometry">
            <mxPoint x="404" y="180" as="targetPoint" />
          </mxGeometry>
        </mxCell>
        <mxCell id="UF7cHTjBoaLbCPgE46Oi-1" value="1000+&lt;br&gt;Raw" style="shape=datastore;whiteSpace=wrap;html=1;rounded=0;" parent="1" vertex="1">
          <mxGeometry x="300" y="90" width="60" height="60" as="geometry" />
        </mxCell>
        <mxCell id="I5RHaz3ScfklKH06W_fI-9" value="" style="edgeStyle=orthogonalEdgeStyle;rounded=0;orthogonalLoop=1;jettySize=auto;html=1;" edge="1" parent="1">
          <mxGeometry relative="1" as="geometry">
            <mxPoint x="257.0999999999999" y="215" as="sourcePoint" />
            <mxPoint x="290" y="260" as="targetPoint" />
            <Array as="points">
              <mxPoint x="290" y="260" />
              <mxPoint x="290" y="260" />
            </Array>
          </mxGeometry>
        </mxCell>
        <mxCell id="UF7cHTjBoaLbCPgE46Oi-2" value="" style="image;aspect=fixed;html=1;points=[];align=center;fontSize=12;image=img/lib/azure2/other/Defender_Robot_Controller.svg;rounded=0;" parent="1" vertex="1">
          <mxGeometry x="240" y="180" width="34.06" height="35" as="geometry" />
        </mxCell>
        <mxCell id="UF7cHTjBoaLbCPgE46Oi-3" value="" style="verticalLabelPosition=bottom;html=1;verticalAlign=top;align=center;strokeColor=none;fillColor=#00BEF2;shape=mxgraph.azure.user;rounded=0;" parent="1" vertex="1">
          <mxGeometry x="388" y="180" width="30" height="30" as="geometry" />
        </mxCell>
        <mxCell id="I5RHaz3ScfklKH06W_fI-1" value="Code" style="whiteSpace=wrap;html=1;rounded=0;" vertex="1" parent="1">
          <mxGeometry x="210" y="150" width="40" height="20" as="geometry" />
        </mxCell>
        <mxCell id="I5RHaz3ScfklKH06W_fI-5" value="Manual" style="whiteSpace=wrap;html=1;rounded=0;" vertex="1" parent="1">
          <mxGeometry x="408.5" y="150" width="40" height="20" as="geometry" />
        </mxCell>
        <mxCell id="I5RHaz3ScfklKH06W_fI-7" value="200&lt;div&gt;Seed + KV&lt;/div&gt;" style="shape=cylinder3;whiteSpace=wrap;html=1;boundedLbl=1;backgroundOutline=1;size=15;" vertex="1" parent="1">
          <mxGeometry x="297" y="215" width="65" height="65" as="geometry" />
        </mxCell>
        <mxCell id="I5RHaz3ScfklKH06W_fI-11" value="" style="endArrow=classic;html=1;rounded=0;exitX=0.5;exitY=1;exitDx=0;exitDy=0;exitPerimeter=0;" edge="1" parent="1" source="UF7cHTjBoaLbCPgE46Oi-3">
          <mxGeometry width="50" height="50" relative="1" as="geometry">
            <mxPoint x="390" y="260" as="sourcePoint" />
            <mxPoint x="370" y="260" as="targetPoint" />
            <Array as="points">
              <mxPoint x="403" y="260" />
            </Array>
          </mxGeometry>
        </mxCell>
        <mxCell id="I5RHaz3ScfklKH06W_fI-12" value="" style="shape=image;html=1;verticalAlign=top;verticalLabelPosition=bottom;labelBackgroundColor=#ffffff;imageAspect=0;aspect=fixed;image=https://cdn1.iconfinder.com/data/icons/unicons-line-vol-5/24/robot-128.png" vertex="1" parent="1">
          <mxGeometry x="304.06" y="330" width="50" height="50" as="geometry" />
        </mxCell>
        <mxCell id="I5RHaz3ScfklKH06W_fI-13" value="" style="html=1;verticalLabelPosition=bottom;align=center;labelBackgroundColor=#ffffff;verticalAlign=top;strokeWidth=2;strokeColor=#0080F0;shadow=0;dashed=0;shape=mxgraph.ios7.icons.reload;rotation=30;" vertex="1" parent="1">
          <mxGeometry x="280.06" y="341.5" width="24" height="27" as="geometry" />
        </mxCell>
        <mxCell id="I5RHaz3ScfklKH06W_fI-14" value="Self-instruct Technic" style="whiteSpace=wrap;html=1;rounded=0;" vertex="1" parent="1">
          <mxGeometry x="352.06" y="341.5" width="90" height="32.5" as="geometry" />
        </mxCell>
        <mxCell id="I5RHaz3ScfklKH06W_fI-15" value="" style="endArrow=classic;html=1;rounded=0;exitX=0.5;exitY=1;exitDx=0;exitDy=0;exitPerimeter=0;entryX=0.5;entryY=0;entryDx=0;entryDy=0;" edge="1" parent="1" source="I5RHaz3ScfklKH06W_fI-7" target="I5RHaz3ScfklKH06W_fI-12">
          <mxGeometry width="50" height="50" relative="1" as="geometry">
            <mxPoint x="378" y="310" as="sourcePoint" />
            <mxPoint x="330" y="320" as="targetPoint" />
          </mxGeometry>
        </mxCell>
      </root>
    </mxGraphModel>
  </diagram>
</mxfile>
